<svg xmlns="http://www.w3.org/2000/svg" xml:space="preserve" viewBox="0 0 494.332 494.332"><path d="m255.265 494.316.028.015-.028-.015zM254.001 1.414a18.099 18.099 0 0 0-14.025 0l-217.02 90.2a16.133 16.133 0 0 0-9.941 14.903l.079 253.738c0 6.87 3.857 13.152 9.984 16.249l213.943 108.422a22.44 22.44 0 0 0 20.301-.007l213.542-108.415a18.212 18.212 0 0 0 9.983-16.249l.47-249.247a22.438 22.438 0 0 0-13.818-20.759L254.001 1.414zm-7.014 36.553 171.358 71.47-171.358 83.339-171.376-83.339 171.376-71.47zm197.415 311.097-179.21 90.865v-211.24l179.21-90.869v211.244z"/></svg>