<svg xmlns="http://www.w3.org/2000/svg" fill="#ff4545" opacity="0.8" xml:space="preserve" viewBox="0 0 77.621 77.621"><path d="M39.259 51.999c5.514 0 10-4.486 10-10V10c0-5.514-4.486-10-10-10s-10 4.486-10 10v31.999c.001 5.513 4.486 10 10 10zm-4-41.999c0-2.206 1.794-4 4-4s4 1.794 4 4v31.999c0 2.206-1.794 4-4 4s-4-1.794-4-4V10zM38.811 55.377c-6.133 0-11.122 4.989-11.122 11.122s4.989 11.122 11.122 11.122 11.122-4.989 11.122-11.122-4.989-11.122-11.122-11.122zm0 16.244c-2.824 0-5.122-2.298-5.122-5.122s2.298-5.122 5.122-5.122 5.122 2.298 5.122 5.122-2.299 5.122-5.122 5.122z"/></svg>